<?xml version="1.0" encoding="utf-8"?>
<!-- Generator: Adobe Illustrator 16.2.1, SVG Export Plug-In . SVG Version: 6.00 Build 0)  -->
<!DOCTYPE svg PUBLIC "-//W3C//DTD SVG 1.1//EN" "http://www.w3.org/Graphics/SVG/1.1/DTD/svg11.dtd">
<svg version="1.1" id="Layer_1" xmlns="http://www.w3.org/2000/svg" xmlns:xlink="http://www.w3.org/1999/xlink" x="0px" y="0px"
	 width="135px" height="135px" viewBox="0 0 135 135" enable-background="new 0 0 135 135" xml:space="preserve">
<g id="surface1" transform="rotate(180)">
	<path d="M-27.068-76.746c0,5.646-4.576,10.224-10.225,10.224c-5.643,0-10.219-4.577-10.219-10.224
		c0-5.645,4.576-10.221,10.219-10.221C-31.645-86.967-27.068-82.391-27.068-76.746z"/>
	<path d="M-66.668-133.422L-79.498-135l-0.557,4.521l10.508,3.031l1.777,6.734l-13.812,13.812l-6.746-1.78l-2.82-10.517
		l-4.732,0.581l1.59,12.869c0.164,1.27,1.082,2.316,2.321,2.645l10.536,2.773l-2.049,2.045c-1.211,1.358-1.211,3.411,0,4.771
		c1.316,1.479,3.584,1.616,5.063,0.3l24.249-24.297c1.209-1.359,1.209-3.408,0-4.771c-1.316-1.479-3.586-1.612-5.066-0.299
		l-2.049,2.052l-2.746-10.509C-64.336-132.301-65.379-133.247-66.668-133.422z"/>
	<path d="M-84.701-2.341c5.725,2.995,12.756,3.116,20.928,0.37c7.436-2.438,13.484-7.922,16.623-15.094
		c4.211-9.328,4.211-21.846,0-31.884v-0.108l-0.285-0.573l1.824-1.827c1.184-1.188,1.184-3.111,0-4.296l-2.15-2.149l-10.902,10.333
		l18.268-17.388c-4.729-1.246-8.258-5.188-8.979-10.021l-24.416,23.6c-2.867-2.092-6.314-3.209-9.852-3.209h-24.289v14.906h40.994
		l8.16-7.752l2.482,2.389c1.188,1.184,3.111,1.184,4.295,0l1.754-1.754c3.477,9.01,3.477,19.979-0.246,28.188
		c-2.699,6.263-7.973,11.054-14.471,13.138c-7.143,2.372-13.195,2.372-17.975-0.109c-3.742-2.064-6.637-5.387-8.16-9.383h2.56
		c1.679,0,3.042-1.359,3.042-3.041v-3.031h1.854c8.558,0.02,15.755-6.41,16.705-14.918h-40.994v14.902h7.307v3.047
		c0,0.012,0,0.027,0,0.038c0.016,1.679,1.387,3.034,3.066,3.019h2.598l0.137,0.483C-93.096-9.293-89.484-4.963-84.701-2.341z"/>
	<path d="M-39.523-88.806l-20.148-20.109l-9.785,9.788l20.145,20.145C-48.396-83.964-44.51-87.867-39.523-88.806z"/>
</g>
</svg>
